<svg xmlns="http://www.w3.org/2000/svg" xmlns:xlink="http://www.w3.org/1999/xlink" id="Layer_1" data-name="Layer 1" viewBox="0 0 96 96"><defs><style>.cls-1{opacity:0.4;}.cls-2{isolation:isolate;}.cls-3{fill:url(#linear-gradient);}.cls-4{opacity:0.58;}.cls-5{fill:url(#linear-gradient-2);}.cls-6{fill:url(#linear-gradient-3);}.cls-7{fill:#fff;}</style><linearGradient id="linear-gradient" x1="-88.79" y1="234.68" x2="134.07" y2="-98.16" gradientUnits="userSpaceOnUse"><stop offset="0.07" stop-color="#3084ff"></stop><stop offset="0.95" stop-color="#aad0ff" stop-opacity="0.5"></stop></linearGradient><linearGradient id="linear-gradient-2" x1="-80.86" y1="239.67" x2="142" y2="-93.18" xlink:href="#linear-gradient"></linearGradient><linearGradient id="linear-gradient-3" x1="-72.14" y1="243.54" x2="150.72" y2="-89.3" gradientUnits="userSpaceOnUse"><stop offset="0.37" stop-color="#005aff"></stop><stop offset="1" stop-color="#aad0ff" stop-opacity="0.9"></stop></linearGradient></defs><title>Icons_Comparison</title><g class="cls-1"><g class="cls-2"><path class="cls-3" d="M54.45,3c2.62-1.51,4.75-.29,4.76,2.72l.15,52.08A10.4,10.4,0,0,1,54.63,66L24.4,83.41c-2.62,1.52-4.75.3-4.76-2.71L19.5,28.61a10.39,10.39,0,0,1,4.72-8.18L54.45,3"></path></g></g><g class="cls-4"><g class="cls-2"><path class="cls-5" d="M62.38,8c2.62-1.51,4.75-.3,4.76,2.71l.14,52.09A10.42,10.42,0,0,1,62.56,71L32.33,88.4c-2.62,1.51-4.75.3-4.76-2.71L27.43,33.6a10.41,10.41,0,0,1,4.72-8.19L62.38,8"></path></g></g><g class="cls-2"><path class="cls-6" d="M71.1,11.84c2.62-1.52,4.75-.3,4.75,2.71L76,66.64a10.39,10.39,0,0,1-4.72,8.18L41.05,92.27c-2.62,1.52-4.75.3-4.76-2.71l-.15-52.09a10.4,10.4,0,0,1,4.73-8.18L71.1,11.84"></path></g><g class="cls-2"><polyline class="cls-7" points="50.85 41.11 50.2 41.49 50.28 71.49 50.93 71.12 50.92 68.46 63.42 61.25 63.41 57.59 50.91 64.81 50.9 61.45 59.29 56.61 59.28 52.95 50.89 57.79 50.88 54.44 69.81 43.51 69.8 39.85 50.87 50.78 50.86 47.43 65.15 39.18 65.14 35.52 50.85 43.77 50.85 41.11"></polyline></g></svg>