<svg xmlns="http://www.w3.org/2000/svg" xmlns:xlink="http://www.w3.org/1999/xlink" id="Layer_1" data-name="Layer 1" viewBox="0 0 96 96"><defs><style>.cls-1{fill:none;}.cls-2{opacity:0.4;fill:url(#linear-gradient);}.cls-3{opacity:0.55;fill:url(#linear-gradient-2);}.cls-4{isolation:isolate;}.cls-5{fill:url(#linear-gradient-3);}.cls-6{fill:url(#linear-gradient-4);}.cls-7{clip-path:url(#clip-path);}.cls-8{fill:#fff;}</style><linearGradient id="linear-gradient" x1="4.73" y1="102.44" x2="74.5" y2="-20.72" gradientUnits="userSpaceOnUse"><stop offset="0.07" stop-color="#3084ff"></stop><stop offset="0.95" stop-color="#aad0ff" stop-opacity="0.5"></stop></linearGradient><linearGradient id="linear-gradient-2" x1="24.7" y1="85.77" x2="81.42" y2="-14.37" gradientUnits="userSpaceOnUse"><stop offset="0" stop-color="#3084ff"></stop><stop offset="0.98" stop-color="#aad0ff" stop-opacity="0.5"></stop></linearGradient><linearGradient id="linear-gradient-3" x1="31.84" y1="93.4" x2="81.08" y2="6.46" gradientUnits="userSpaceOnUse"><stop offset="0.17" stop-color="#3084ff"></stop><stop offset="1" stop-color="#aad0ff" stop-opacity="0.9"></stop></linearGradient><linearGradient id="linear-gradient-4" x1="28.07" y1="91.26" x2="77.31" y2="4.32" xlink:href="#linear-gradient-3"></linearGradient><clipPath id="clip-path"><polygon class="cls-1" points="47.44 72.67 47.38 51 68.25 38.95 68.31 60.63 47.44 72.67"></polygon></clipPath></defs><path class="cls-2" d="M59.1,4.66c0-3.83-2.71-5.37-6-3.45L21.37,19.56a11.23,11.23,0,0,0-5.1,8.84l.16,56.19c0,3.25,2.31,4.55,5.13,2.92L54.17,68.69a11.25,11.25,0,0,0,5.1-8.84Z"></path><path class="cls-3" d="M67.57,8.29c0-3.82-2.72-5.36-6-3.44L29.83,23.2A11.21,11.21,0,0,0,24.73,32l.16,56.19c0,3.25,2.31,4.56,5.13,2.93L62.63,72.32a11.23,11.23,0,0,0,5.1-8.83Z"></path><g class="cls-4"><path class="cls-5" d="M59.1,15.26,39.32,26.68a11.25,11.25,0,0,0-5.1,8.84l.16,56.19c0,3.25,2.3,4.56,5.13,2.93L72.12,75.81A11.26,11.26,0,0,0,77.22,67L77.1,25.84,59.16,36.19,59.1,15.26"></path><path class="cls-6" d="M71.92,7.86,61.31,14l.06,18.4L77.09,23.3l0-12.52c0-3.24-2.31-4.55-5.14-2.92"></path></g><g class="cls-4"><g class="cls-7"><polyline class="cls-8" points="68.25 38.95 47.38 51 47.39 53.06 68.25 41.01 68.25 38.95"></polyline><polyline class="cls-8" points="68.27 45.49 47.4 57.54 47.41 59.59 68.27 47.55 68.27 45.49"></polyline><polyline class="cls-8" points="68.28 52.03 47.42 64.08 47.43 66.14 68.29 54.09 68.28 52.03"></polyline><polyline class="cls-8" points="58.71 64.11 47.44 70.62 47.44 72.67 58.72 66.17 58.71 64.11"></polyline></g></g></svg>