<svg xmlns="http://www.w3.org/2000/svg" xmlns:xlink="http://www.w3.org/1999/xlink" id="Layer_1" data-name="Layer 1" viewBox="0 0 96 96"><defs><style>.cls-1{isolation:isolate;}.cls-2{fill:url(#linear-gradient);}.cls-3{fill:url(#linear-gradient-2);}.cls-4{fill:url(#linear-gradient-3);}.cls-5{fill:url(#linear-gradient-4);}.cls-6{fill:#fff;}.cls-7{fill:#2a37ad;}.cls-8{fill:#235ed9;}.cls-9{fill:#1d9efb;}.cls-10{fill:#daecff;}.cls-11{fill:#c7e3ff;}.cls-12{fill:#90cfff;}.cls-13{fill:url(#linear-gradient-5);}.cls-14{fill:#1b33b7;}.cls-15{fill:#233d91;}.cls-16{fill:#235eb5;}.cls-17{fill:#79bcff;}.cls-18{fill:#62a7ff;}</style><linearGradient id="linear-gradient" x1="3.16" y1="83.18" x2="149.18" y2="38.36" gradientUnits="userSpaceOnUse"><stop offset="0.06" stop-color="#3db1ff"></stop><stop offset="0.15" stop-color="#41b4ff" stop-opacity="0.95"></stop><stop offset="0.31" stop-color="#4dbdff" stop-opacity="0.83"></stop><stop offset="0.52" stop-color="#60cbff" stop-opacity="0.63"></stop><stop offset="0.77" stop-color="#7bdeff" stop-opacity="0.36"></stop><stop offset="1" stop-color="#94f0ff" stop-opacity="0.1"></stop></linearGradient><linearGradient id="linear-gradient-2" x1="-1.73" y1="67.26" x2="144.29" y2="22.44" gradientUnits="userSpaceOnUse"><stop offset="0.23" stop-color="#3db1ff"></stop><stop offset="0.3" stop-color="#41b4ff" stop-opacity="0.95"></stop><stop offset="0.43" stop-color="#4dbdff" stop-opacity="0.83"></stop><stop offset="0.61" stop-color="#60cbff" stop-opacity="0.63"></stop><stop offset="0.82" stop-color="#7bdeff" stop-opacity="0.36"></stop><stop offset="1" stop-color="#94f0ff" stop-opacity="0.1"></stop></linearGradient><linearGradient id="linear-gradient-3" x1="2.61" y1="81.38" x2="148.62" y2="36.55" xlink:href="#linear-gradient"></linearGradient><linearGradient id="linear-gradient-4" x1="2.05" y1="79.55" x2="148.06" y2="34.73" xlink:href="#linear-gradient"></linearGradient><linearGradient id="linear-gradient-5" x1="57.9" y1="5.27" x2="63.87" y2="49.26" gradientUnits="userSpaceOnUse"><stop offset="0.1" stop-color="#2a37ad"></stop><stop offset="0.56" stop-color="#0091ff"></stop><stop offset="0.66" stop-color="#00b3e5"></stop><stop offset="0.81" stop-color="#00dcc5"></stop><stop offset="0.93" stop-color="#00f6b1"></stop><stop offset="1" stop-color="#0fa"></stop></linearGradient></defs><g class="cls-1"><path class="cls-2" d="M26,64.31l-4.26-2.46L.59,74.14H9.07l4.26,2.45h17L26,74.14,26,64.31M51.5,74.14l-4.26-2.46H38.76L30.3,76.59l4.26,2.46H43L51.55,84l0-9.83"></path><polyline class="cls-3" points="73.17 38.19 68.91 35.73 35.07 55.39 35.1 60.31 39.36 62.77 47.82 57.85 56.3 57.85 64.76 52.93 69.02 55.39 68.97 45.56 73.19 43.1 73.17 38.19"></polyline><polyline class="cls-4" points="62.27 56.4 58.04 58.85 49.56 58.86 41.1 63.77 45.35 66.23 53.84 66.23 62.35 71.14 62.27 56.4"></polyline><polyline class="cls-5" points="95.44 50.3 91.18 47.84 82.72 52.76 86.98 55.21 91.21 52.76 95.47 55.22 95.44 50.3"></polyline></g><path class="cls-6" d="M36.22,67.39v2.76l1.74.56.4-.43.41-.86a8,8,0,0,1-.81-2c0-.62-.89-.8-.89-.8Z"></path><polygon class="cls-6" points="57.02 56.77 56.42 58.65 57.97 59.49 58.88 59.34 58.88 58.8 58.57 56.87 57.02 56.77"></polygon><polygon class="cls-6" points="64.29 58.47 64.52 60.44 65.78 60.96 65.97 60.72 66.14 60.42 65.97 58.47 64.29 58.47"></polygon><path class="cls-7" d="M66.15,60.05c0,.05.08.1.09.15a.79.79,0,0,1,0,.22l0,.26a2.24,2.24,0,0,1,0,1A.6.6,0,0,1,66,62a.92.92,0,0,0-.42.47c-.08.21-.13.43-.22.62a2.16,2.16,0,0,1-1.06.86c-.53.24-1.42.39-1.75-.07a.91.91,0,0,1-.16-.45v-.1a1.93,1.93,0,0,1,.67-1.31,4.84,4.84,0,0,0,.71-1c.05-.1.09-.27.13-.37a1.6,1.6,0,0,1,.13-.3c.11-.15.4-.13.56-.09a3.65,3.65,0,0,1,.54.23c.18.08.38.22.57.18A.6.6,0,0,0,66.15,60.05Z"></path><path class="cls-8" d="M55.51,27.67a63.83,63.83,0,0,0-.4,8.49c0,5.22.45,9.11.45,9.11l.9,12.56,2.3-.17,1.13-7.2a12.65,12.65,0,0,0-.06-4.34l-.22-2.22s.84-7.46,1.09-9.34S61,29,59.56,27.48,55.51,27.67,55.51,27.67Z"></path><path class="cls-9" d="M57.31,29.19a41.89,41.89,0,0,0,1.36,8.42c1.44,5,2.46,9.94,2.46,9.94l2.79,12.07,2.29-.27L66,51.51a40.43,40.43,0,0,0-1.13-6s-.11-8.81-.11-10.7-.13-4.37-1.76-5.68S57.31,29.19,57.31,29.19Z"></path><path class="cls-7" d="M57.68,59a2,2,0,0,1-1.21-.7s-1,.71-1.27.82c-.74.32-1.5.61-2.26.88a.16.16,0,0,0-.1,0,.36.36,0,0,0,0,.11v.14c0,.08,0,0,0,.12a.53.53,0,0,0,.34.31,4.65,4.65,0,0,0,2.88,0,4.22,4.22,0,0,1,2-.19,1.17,1.17,0,0,0,.87-.23.65.65,0,0,0,.19-.53c0-.51-.12-.82-.18-1.38A1.14,1.14,0,0,1,57.68,59Z"></path><path class="cls-10" d="M68.45,35.91c.23.44,0-.35.23.09.09.17-.06.92,0,1.11a13.72,13.72,0,0,1,.62,2.3,2.61,2.61,0,0,1-.12,1.51c-.16.39-.67,1-1.07.94s-.44-.55-.56-.91a5.1,5.1,0,0,1-.18-2.57,3.75,3.75,0,0,0,.17-1.44c.09-.12,1-1,.88-1.11Z"></path><path class="cls-10" d="M67,40.24a.5.5,0,0,0,0,.17.15.15,0,0,0,.21.09.58.58,0,0,0,.16-.21A13.72,13.72,0,0,0,68,38.78c.22-.58-.35-1-.62-.63A4.29,4.29,0,0,0,67,40.24Z"></path><path class="cls-11" d="M52.1,27.94c-.11.49.23-.26.12.22,0,.19-.65.66-.73.84-.2.45-.37.91-.58,1.35-.11.24-.23.47-.33.71l-.18.41a1.22,1.22,0,0,0-.17.39,1,1,0,0,1-.23.36.65.65,0,0,1-.39.1,6.77,6.77,0,0,1-1.1,0,.33.33,0,0,1-.22-.06A.25.25,0,0,1,48.2,32a4.74,4.74,0,0,1,.15-.5l.15-.61a3.71,3.71,0,0,1,.21-.81,2.26,2.26,0,0,1,.4-.47,4.6,4.6,0,0,1,.56-.52,3.72,3.72,0,0,0,1.06-1c.14,0,1.36-.14,1.39-.27Z"></path><path class="cls-12" d="M56.44,12.73c-2,.5-2,2.8-2.2,4.16s-.39,6.46-.39,6.46l-4.11,5.4,1.32,1.4,4.72-4.45a3.92,3.92,0,0,0,.6-1.48L58.45,18Z"></path><path class="cls-13" d="M58.5,12.66a14.77,14.77,0,0,1,6.37,2.4c1.21.9,1.2,2,.72,7.33-.19,2.12-.78,5.89-.78,5.89v5.77s-2.23,1.82-6-.22S55,31,55,31a34.41,34.41,0,0,0,0-10.06C54.3,16.49,53.81,11.76,58.5,12.66Z"></path><path class="cls-10" d="M55.9,6.16a3.43,3.43,0,0,0-.09,1.53,22.18,22.18,0,0,0,.34,3.82c.11.41.17.55,1.23.6s1,.52,1,.88c-.06.79-.2,2.86-.2,2.86l3-2.4.24-4.9a2.27,2.27,0,0,0-1.45-2.73c-2-.94-2.77-.8-2.77-.8Z"></path><path class="cls-14" d="M59.15,7.68A.86.86,0,0,0,59,7.37a1.81,1.81,0,0,0-.81-.51,4.09,4.09,0,0,0-1.1-.13,2.92,2.92,0,0,0-.93,0,.5.5,0,0,0-.36.61A5.21,5.21,0,0,0,55.4,6a2.21,2.21,0,0,1-.08-1.14.81.81,0,0,1,.39-.56,1.26,1.26,0,0,1,.77,0c1.39.18,2.83-.6,4.15.05a2.94,2.94,0,0,1,1.1,1.19A1.83,1.83,0,0,1,62.08,7c-.08.47-.26.92-.31,1.39s.11,1.17,0,1.75a.65.65,0,0,1-1.15.28,1,1,0,0,1-.06-.79c.07-.26.2-.51.27-.77a.46.46,0,0,0,0-.46.37.37,0,0,0-.52,0c-.2.19-.11.45-.28.62-.38.4-.67-.64-.74-.86A4.81,4.81,0,0,1,59.15,7.68Z"></path><path class="cls-12" d="M65.22,15.37c1,1,2.3,5.57,3.31,8.9a12.89,12.89,0,0,1,.75,4.87l.06,8.76-2.11.15-.92-9.26-2-4.81a8,8,0,0,1,0-7.25Z"></path><path class="cls-7" d="M37,70a3.9,3.9,0,0,0,1.78-.89s1,.75,1.24.87c.73.34,1.49.66,2.27.94a.18.18,0,0,1,.09.06.14.14,0,0,1,0,.11l0,.15c0,.08,0,0-.05.12a1,1,0,0,1-.5.33,5.81,5.81,0,0,1-3.29-.06,3.74,3.74,0,0,0-1.93-.18,1.17,1.17,0,0,1-.91-.25.61.61,0,0,1,0-.56c.16-.55.26-.9.47-1.47C36.23,69.54,36.34,70,37,70Z"></path><path class="cls-7" d="M30.42,65.42a.94.94,0,0,0,.38.27.66.66,0,0,0,.62-.11c.31-.23.29-.61.46-.91a1.41,1.41,0,0,0,.39.19,1,1,0,0,0,.34,0c.46-.12,1.1-.43,1.58-.27.66.21.5,1,.15,1.43s-1.33.57-1.84.66a5.24,5.24,0,0,0-1.07.32,4.22,4.22,0,0,1-.89.41c-.56.11-1.06-.09-1.08-.72,0-.3-.23-1.72.33-1.65A1,1,0,0,1,30.42,65.42Z"></path><path class="cls-15" d="M36.84,39.8l-3,14.13L32,64l-2.4.25.11-7.32a22.33,22.33,0,0,1,.42-4L30.79,49l-.26-9.81L35.76,30Z"></path><path class="cls-16" d="M39.53,40.74l0,14.06-.88,13.28-2.44.2L35,60.19a20.72,20.72,0,0,1-.1-5.16L35,53.09S32,37.78,31.74,33.71c-.19-3.32,5-.53,5-.53Z"></path><path class="cls-10" d="M27.87,24.19a44.11,44.11,0,0,0-1.62,6c-.19,1.69.61,1.95,1.61,3a27.44,27.44,0,0,0,4.28,3.06l.11-.84-3.19-4.59.86-3.89Z"></path><path class="cls-17" d="M29.3,21.74c-1.38.51-2.29,4.84-2.29,4.84l2.86,2.13.69-4S30.68,21.22,29.3,21.74Z"></path><path class="cls-18" d="M29.06,21.88c1-.63,3.59-1.44,6.9.27s3.39,3.27,3.57,4.08.08,15.84.08,15.84-1,1.44-4.63.18-4.57-2.69-4.57-2.69a31,31,0,0,0-.36-6.39,64.75,64.75,0,0,1-1.8-7C28,23.13,29.06,21.88,29.06,21.88Z"></path><path class="cls-10" d="M38.07,15.11l.16,3-.48.25-.13,1.33a.89.89,0,0,1-.81.83l-.78.09L36,22.19s-1.13-.19-2.41-.28-1.24-.47-1.24-.47l.13-4,1.14-2.73Z"></path><path class="cls-14" d="M32.56,19.4s1.88.1,2.16.1.66-.19.78-1.07.06-2.29.82-2.19.62,1.16.62,1.16h.41a1.72,1.72,0,0,1,.19-1.35c.4-.81,1.28-.69,1.5-1.38A1.78,1.78,0,0,0,38.38,13,5.39,5.39,0,0,1,36,12.89c-1.16-.41-2.61-.81-3.57.25a2.5,2.5,0,0,0-.44,1,1.4,1.4,0,0,0-1,1.41c.09,1.13.94,2.29,1.07,3S32.56,19.4,32.56,19.4Z"></path><path class="cls-10" d="M37.8,24.08c1.47,0,2.17,1.12,3.33,3.53a40.08,40.08,0,0,1,1.74,4.1A28,28,0,0,0,46.66,31a2.88,2.88,0,0,0,1.18-.67c.14-.16.17-.37.33-.52a2.13,2.13,0,0,1,.94-.4c-.08.07-.34.27-.28.36a.69.69,0,0,0,.27.17,10,10,0,0,1,1.07.44c.49.26,1.1.22.38,1.08-.18.22-.28.52-.55.62a1.79,1.79,0,0,1-.89,0,2.33,2.33,0,0,0-.91,0,16.43,16.43,0,0,0-3.16,2c-2.34,1.65-3.21.78-3.21.78s-4.09-3.43-4.95-5.45C34.9,24.72,37.8,24.08,37.8,24.08Z"></path><path class="cls-17" d="M36.8,29.53c-2.08-4.9,1-5.57,1-5.57,1.55-.05,2.46,1.4,3.44,3.71Z"></path><path class="cls-11" d="M48,30.55a.21.21,0,0,0,.13.23.23.23,0,0,0,.21,0,.79.79,0,0,0,.17-.14,2,2,0,0,1,.88-.5c.14,0,.31,0,.4-.13a.61.61,0,0,0,.09-.42.58.58,0,0,0-.19-.35c-.11-.08-.21,0-.33,0a2.67,2.67,0,0,0-.61.4,3.41,3.41,0,0,0-.42.43c-.1.12-.26.24-.31.38A.18.18,0,0,0,48,30.55Z"></path><path class="cls-11" d="M48.07,32a.31.31,0,0,1,.23-.28.57.57,0,0,1,.22,0l.61.19c.06,0,.66.11.68.18s-.53,0-.56.08l-.13.07a1.74,1.74,0,0,1-.71.12c-.1,0-.19,0-.26-.07A.49.49,0,0,1,48.07,32Z"></path></svg>