<svg xmlns="http://www.w3.org/2000/svg" xmlns:xlink="http://www.w3.org/1999/xlink" id="Layer_1" data-name="Layer 1" viewBox="0 0 96 96"><defs><style>.cls-1,.cls-11,.cls-12{fill:none;}.cls-2{opacity:0.6;fill:url(#linear-gradient);}.cls-3{opacity:0.4;fill:url(#linear-gradient-2);}.cls-4{fill:url(#linear-gradient-3);}.cls-5{fill:url(#linear-gradient-4);}.cls-6{fill:url(#linear-gradient-5);}.cls-7{isolation:isolate;}.cls-8{clip-path:url(#clip-path);}.cls-9{fill:#fff;}.cls-10{clip-path:url(#clip-path-2);}.cls-11,.cls-12{stroke:#fff;stroke-miterlimit:10;stroke-width:3px;}.cls-12{stroke-dasharray:5.3 3.53;}</style><linearGradient id="linear-gradient" x1="-2.24" y1="132.55" x2="80.95" y2="-6.22" gradientUnits="userSpaceOnUse"><stop offset="0" stop-color="#3084ff"></stop><stop offset="0.98" stop-color="#aad0ff" stop-opacity="0.5"></stop></linearGradient><linearGradient id="linear-gradient-2" x1="-9.6" y1="127.26" x2="73.59" y2="-11.51" gradientUnits="userSpaceOnUse"><stop offset="0.07" stop-color="#3084ff"></stop><stop offset="0.95" stop-color="#aad0ff" stop-opacity="0.5"></stop></linearGradient><linearGradient id="linear-gradient-3" x1="25.91" y1="61.57" x2="136.03" y2="5.81" gradientUnits="userSpaceOnUse"><stop offset="0.17" stop-color="#3084ff"></stop><stop offset="1" stop-color="#aad0ff" stop-opacity="0.9"></stop></linearGradient><linearGradient id="linear-gradient-4" x1="32.28" y1="74.14" x2="142.4" y2="18.38" xlink:href="#linear-gradient-3"></linearGradient><linearGradient id="linear-gradient-5" x1="28.93" y1="67.52" x2="139.04" y2="11.76" xlink:href="#linear-gradient-3"></linearGradient><clipPath id="clip-path"><polygon class="cls-1" points="27.84 82.83 27.8 70.08 38.9 63.67 38.93 76.42 27.84 82.83"></polygon></clipPath><clipPath id="clip-path-2"><polygon class="cls-1" points="77.42 41.91 77.38 29.16 88.48 22.75 88.51 35.5 77.42 41.91"></polygon></clipPath></defs><polygon class="cls-2" points="66.02 18.21 66.02 18.23 37.33 13.95 14.53 28.23 14.53 89.73 35.06 76.52 35.06 76.3 65.17 79.73 65.17 79.71 81.47 69.25 81.47 7.75 66.02 18.21"></polygon><polygon class="cls-3" points="58.66 12.92 58.66 12.94 29.97 8.66 7.17 22.94 7.17 84.44 27.7 71.23 27.7 71.01 57.81 74.44 57.81 74.42 74.11 63.96 74.11 2.46 58.66 12.92"></polygon><polygon class="cls-4" points="42.41 82.7 23.65 94.73 23.65 33.23 42.41 21.2 42.41 82.7"></polygon><polygon class="cls-5" points="90.59 74.26 74.29 84.72 74.29 23.22 90.59 12.76 90.59 74.26"></polygon><polygon class="cls-6" points="71.77 85.31 44.76 81.52 44.76 20.02 71.77 23.81 71.77 85.31"></polygon><g class="cls-7"><g class="cls-8"><path class="cls-9" d="M33.35,66.87a12.19,12.19,0,0,0-5.53,9.58c0,3.52,2.5,4.94,5.56,3.18a12.18,12.18,0,0,0,5.53-9.58c0-3.52-2.5-4.94-5.56-3.18"></path></g></g><g class="cls-7"><g class="cls-10"><path class="cls-9" d="M82.93,26a12.18,12.18,0,0,0-5.53,9.58c0,3.52,2.5,4.94,5.57,3.17a12.19,12.19,0,0,0,5.53-9.58c0-3.52-2.51-4.94-5.57-3.17"></path></g></g><line class="cls-11" x1="40.08" y1="64.28" x2="41.8" y2="61.82"></line><polyline class="cls-12" points="43.82 58.93 44.12 58.51 72.05 46.26 73.43 44.15"></polyline><line class="cls-11" x1="74.39" y1="42.67" x2="76.02" y2="40.15"></line></svg>