<svg xmlns="http://www.w3.org/2000/svg" xmlns:xlink="http://www.w3.org/1999/xlink" id="Layer_1" data-name="Layer 1" viewBox="0 0 96 96"><defs><style>.cls-1{opacity:0.4;fill:url(#linear-gradient);}.cls-2{opacity:0.55;fill:url(#linear-gradient-2);}.cls-3{isolation:isolate;}.cls-4{fill:url(#linear-gradient-3);}.cls-5{fill:url(#linear-gradient-4);}.cls-6{fill:#2a5cd9;}.cls-7{fill:url(#linear-gradient-5);}</style><linearGradient id="linear-gradient" x1="4.73" y1="102.44" x2="74.5" y2="-20.72" gradientUnits="userSpaceOnUse"><stop offset="0.07" stop-color="#3084ff"></stop><stop offset="0.95" stop-color="#aad0ff" stop-opacity="0.5"></stop></linearGradient><linearGradient id="linear-gradient-2" x1="24.7" y1="85.77" x2="81.42" y2="-14.37" gradientUnits="userSpaceOnUse"><stop offset="0" stop-color="#3084ff"></stop><stop offset="0.98" stop-color="#aad0ff" stop-opacity="0.5"></stop></linearGradient><linearGradient id="linear-gradient-3" x1="32.45" y1="86" x2="104.92" y2="-22.23" gradientUnits="userSpaceOnUse"><stop offset="0.17" stop-color="#3084ff"></stop><stop offset="1" stop-color="#aad0ff" stop-opacity="0.9"></stop></linearGradient><linearGradient id="linear-gradient-4" x1="26.68" y1="82.14" x2="99.15" y2="-26.09" xlink:href="#linear-gradient-3"></linearGradient><linearGradient id="linear-gradient-5" x1="101.77" y1="83.55" x2="40.13" y2="49.19" gradientUnits="userSpaceOnUse"><stop offset="0" stop-color="#91c3ff"></stop><stop offset="1" stop-color="#fff"></stop></linearGradient></defs><path class="cls-1" d="M59.1,4.66c0-3.83-2.71-5.37-6-3.45L21.37,19.56a11.23,11.23,0,0,0-5.1,8.84l.16,56.19c0,3.25,2.31,4.55,5.13,2.92L54.17,68.69a11.25,11.25,0,0,0,5.1-8.84Z"></path><path class="cls-2" d="M67.57,8.29c0-3.82-2.72-5.36-6-3.44L29.83,23.2A11.21,11.21,0,0,0,24.73,32l.16,56.19c0,3.25,2.31,4.56,5.13,2.93L62.63,72.32a11.23,11.23,0,0,0,5.1-8.83Z"></path><g class="cls-3"><path class="cls-4" d="M59.1,15.26,39.32,26.68a11.25,11.25,0,0,0-5.1,8.84l.16,56.19c0,3.25,2.3,4.56,5.13,2.93L72.12,75.81A11.26,11.26,0,0,0,77.22,67L77.1,25.84,59.16,36.19,59.1,15.26"></path><path class="cls-5" d="M71.92,7.86,61.31,14l.06,18.4L77.09,23.3l0-12.52c0-3.24-2.31-4.55-5.14-2.92"></path></g><g class="cls-3"><path class="cls-6" d="M64.6,69.93a7.74,7.74,0,0,1-2.68,1c-3.9.54-5.86-3.34-4.39-8.67a16.7,16.7,0,0,1,7-9.64,7.57,7.57,0,0,1,2.68-1c3.9-.54,5.86,3.34,4.39,8.67a16.68,16.68,0,0,1-7,9.65M68.9,34a9.26,9.26,0,0,0-1.43,2.94,8.12,8.12,0,0,1-3.81,4.38c-1.68,1-3.36,1.24-3.86.25a2.06,2.06,0,0,0-1.51-1.13A49.74,49.74,0,0,0,52.22,47a6.18,6.18,0,0,0,.3,2.54c.9,1.78-2.07,7.79-4.51,9.2a2.16,2.16,0,0,1-.77.29,4.06,4.06,0,0,0-1.44.52,5.83,5.83,0,0,0-1,.78,53.78,53.78,0,0,0-2.21,8.29c.12.4,4.08,2.44,4.41,3.45.62,1.94-.5,4-2.28,5.9a8.06,8.06,0,0,0-1.77,2.82,14.81,14.81,0,0,0,2.71,5.37c.22-.08,4.16,3.58,4.41,3.44.54-.31-.78-4-.26-4.53.31-.33-1.16-1.2-.81-1.4,2.41-1.4,5.55.28,4.62,3.64a8.11,8.11,0,0,0-.18,2.78,15.44,15.44,0,0,0,4.41,3.44,60.12,60.12,0,0,0,3.25-7.26,8.89,8.89,0,0,1,4-4.59c1.59-.91,3.13-1.17,3.65-.15a2.22,2.22,0,0,0,1.32,1.24,39.49,39.49,0,0,0,6.4-6.89A3.81,3.81,0,0,0,76,73.55c-1.05-2.07,1.82-7.64,4.34-9.1a2.48,2.48,0,0,1,.9-.33,4.19,4.19,0,0,0,1.48-.57,8,8,0,0,0,.78-.51,50.55,50.55,0,0,0,2.41-8.58,1.93,1.93,0,0,0-1.84-.57c-2.39.33-2.37-6.35-.25-8.68.7-.76,4-4,3.34-4.69a22.18,22.18,0,0,0-4.41-3.44c-.18-.1-.38.17-.58.28a7.33,7.33,0,0,0-1.64,1.35,3.73,3.73,0,0,1-.86.71c-2.35,1.35.09.24-.16-2.83-1.28-1-3.64-3-4.41-3.45A15.89,15.89,0,0,0,68.9,34"></path></g><g class="cls-3"><path class="cls-7" d="M69,73.37a7.29,7.29,0,0,1-2.68,1c-3.9.54-5.86-3.34-4.39-8.66A16.72,16.72,0,0,1,69,56a7.33,7.33,0,0,1,2.69-1c3.89-.54,5.85,3.34,4.38,8.67a16.69,16.69,0,0,1-7,9.64m4.3-35.94a9.22,9.22,0,0,0-1.43,3,8.1,8.1,0,0,1-3.81,4.37c-1.67,1-3.36,1.25-3.86.25a2.07,2.07,0,0,0-1.51-1.13,51,51,0,0,0-6.07,6.56,6.18,6.18,0,0,0,.3,2.54c.9,1.79-2.07,7.8-4.51,9.21a2.06,2.06,0,0,1-.77.28,4.15,4.15,0,0,0-1.44.53,6.27,6.27,0,0,0-1.05.77A53.89,53.89,0,0,0,47,72.06c.12.39,1.09.74,1.88.62,3.44-.48,3,5.77.25,8.72a8.15,8.15,0,0,0-1.77,2.82A14.65,14.65,0,0,0,50,89.59a3.57,3.57,0,0,0,.7-.32,7.44,7.44,0,0,0,1.65-1.37,4.3,4.3,0,0,1,1-.8c2.42-1.39,5.55.29,4.62,3.65a8,8,0,0,0-.18,2.77,15.53,15.53,0,0,0,6.37-.93,9.49,9.49,0,0,0,1.29-2.88,8.83,8.83,0,0,1,4-4.59c1.58-.92,3.12-1.18,3.64-.16a2.24,2.24,0,0,0,1.32,1.25,38.79,38.79,0,0,0,6.4-6.9A3.73,3.73,0,0,0,80.42,77c-1-2.07,1.82-7.65,4.34-9.1a2.48,2.48,0,0,1,.91-.34A4.39,4.39,0,0,0,87.14,67a8.13,8.13,0,0,0,.78-.52,49.14,49.14,0,0,0,2.41-8.58,2,2,0,0,0-1.84-.57c-2.39.33-2.37-6.35-.24-8.67A9.64,9.64,0,0,0,89.9,46.1a13.49,13.49,0,0,0-2.73-5.58,6.27,6.27,0,0,0-.58.29A7.07,7.07,0,0,0,85,42.16a3.73,3.73,0,0,1-.86.7,3.17,3.17,0,0,1-4.73-3.53,6.52,6.52,0,0,0,.16-2.74,16,16,0,0,0-6.21.84"></path></g></svg>